<svg width="32" height="32" viewBox="0 0 32 32" fill="none" xmlns="http://www.w3.org/2000/svg">
<rect width="32" height="32" fill="white"/>
<path d="M19.7148 26.9286H24.2421C24.2421 26.9286 23.9451 26.7669 23.7421 26.5594C23.6859 26.502 23.6022 26.4642 23.5128 26.4413C23.2628 26.3759 22.9945 26.4378 22.7892 26.5949C22.6137 26.7291 22.3489 26.8736 22.0931 26.7864C21.6551 26.6373 21.6173 26.1672 21.0657 26.2692C20.5141 26.3713 20.4946 26.9355 19.7148 26.9286Z" fill="#262842"/>
<path d="M27.0475 26.112H19.1719C19.1719 26.112 19.6879 25.8655 20.0422 25.5502C20.1409 25.463 20.2853 25.4057 20.4424 25.3701C20.8782 25.2704 21.3438 25.3655 21.7004 25.604C22.0054 25.8093 22.4664 26.0283 22.9113 25.8953C23.6727 25.6683 23.7381 24.9539 24.6979 25.1087C25.6577 25.2635 25.691 26.1212 27.0475 26.1109V26.112Z" fill="#262842"/>
<path d="M9.96916 21.4358C9.34305 19.8522 8.9956 17.9073 8.9956 15.6139C8.9956 8.58682 11.6399 4.59967 16.549 4.46665C18.1395 4.42308 21.324 4.75219 22.098 10.2324H23.247L23.0177 4.24763C21.5705 3.74307 18.4767 3 16.6855 3C10.2214 3 5.51416 8.40563 5.51416 15.6128C5.51416 16.263 5.54971 16.8948 5.61851 17.5106C6.75376 19.0483 8.23418 20.3831 9.96916 21.4358Z" fill="#262842"/>
<path d="M8.27881 28.5697L11.0183 18.7527L9.49662 29.0009L8.27881 28.5697Z" fill="#262842"/>
<path d="M17.1854 25.5949C17.0913 25.5949 16.9984 25.5914 16.9044 25.5903L16.2061 28.1509C19.5476 27.9881 22.7492 26.1808 24.6104 23.0125C22.5245 24.6374 19.9593 25.596 17.1854 25.596V25.5949Z" fill="#ED5411"/>
<path d="M9.28766 22.7845C7.68799 21.4371 6.42316 19.6482 5.61816 17.5107C6.03098 20.7319 7.21554 23.3865 8.9597 25.2408L9.28766 22.7834V22.7845Z" fill="#ED5411"/>
<path d="M11.3429 23.4827C11.1824 23.4047 11.0253 23.321 10.8716 23.2292L10.1606 26.3208C10.3865 26.4928 10.6205 26.6522 10.8601 26.8013L11.3418 23.4827H11.3429Z" fill="#ED5411"/>
<path d="M12.3521 23.8852C12.1985 23.8359 12.0459 23.7843 11.8957 23.7258L11.0288 26.9045C11.2948 27.0628 11.5701 27.2061 11.851 27.3357L12.3521 23.8852Z" fill="#ED5411"/>
<path d="M13.3828 24.1431C13.2257 24.1133 13.0686 24.0801 12.9138 24.0422L11.9976 27.401C12.2785 27.5248 12.5675 27.6338 12.8622 27.7278L13.3828 24.1431Z" fill="#ED5411"/>
<path d="M14.4283 24.2888C14.2724 24.2739 14.1176 24.2567 13.9628 24.2361L12.9995 27.768C13.2908 27.8563 13.5878 27.9285 13.8917 27.9881L14.4283 24.2888Z" fill="#ED5411"/>
<path d="M15.1045 28.1418C15.304 28.1544 15.5058 28.1636 15.71 28.1636C15.8074 28.1636 15.9049 28.1613 16.0024 28.159L16.4806 24.3462C16.367 24.3496 16.2524 24.3519 16.1377 24.3542L15.1045 28.143V28.1418Z" fill="#ED5411"/>
<path d="M15.4879 24.3505C15.3388 24.3471 15.1897 24.3425 15.0407 24.3345L14.0361 28.0154C14.332 28.0682 14.6324 28.106 14.9386 28.1313L15.4879 24.3505Z" fill="#ED5411"/>
<path d="M5 26.2545H9.52725C9.52725 26.2545 9.23025 26.0929 9.02728 25.8853C8.97109 25.828 8.88738 25.7901 8.79793 25.7672C8.54795 25.7018 8.27962 25.7637 8.07435 25.9208C7.89891 26.055 7.63401 26.1995 7.37829 26.1123C6.94025 25.9633 6.90241 25.4931 6.35083 25.5952C5.79926 25.6972 5.77977 26.2614 5 26.2545Z" fill="#262842"/>
<path d="M21.4077 28.1638H12.3521C12.3521 28.1638 12.9449 27.9952 13.352 27.7785C13.4655 27.7188 13.6306 27.6799 13.8118 27.6546C14.3129 27.5858 14.8473 27.6512 15.259 27.8152C15.6099 27.9551 16.1397 28.1064 16.6522 28.0147C17.5272 27.8587 17.604 27.3691 18.7072 27.4757C19.8103 27.5824 19.8482 28.1695 21.4088 28.1638H21.4077Z" fill="#262842"/>
<path d="M8.48699 27.673H11.3412C11.3412 27.673 11.1543 27.5709 11.0258 27.4402C10.9891 27.4024 10.9352 27.3794 10.8756 27.3645C10.7174 27.3244 10.5499 27.368 10.4192 27.4677C10.308 27.5514 10.144 27.6386 9.98575 27.5847C9.70939 27.4907 9.68645 27.1948 9.33785 27.259C8.98925 27.3233 8.97778 27.6787 8.48584 27.6753L8.48699 27.673Z" fill="#262842"/>
</svg>
